<mxfile host="app.diagrams.net" agent="Mozilla/5.0 (Windows NT 10.0; Win64; x64) AppleWebKit/537.36 (KHTML, like Gecko) Chrome/135.0.0.0 Safari/537.36" version="26.2.14">
  <diagram name="Página-1" id="wAooyPA9K4l1pR_OehJg">
    <mxGraphModel dx="891" dy="519" grid="1" gridSize="10" guides="1" tooltips="1" connect="1" arrows="1" fold="1" page="1" pageScale="1" pageWidth="827" pageHeight="1169" math="0" shadow="0">
      <root>
        <mxCell id="0" />
        <mxCell id="1" parent="0" />
        <mxCell id="HWTtgQEffBTlYTcA-UOP-9" value="Vista" style="text;align=center;fontStyle=1;verticalAlign=middle;spacingLeft=3;spacingRight=3;strokeColor=none;rotatable=0;points=[[0,0.5],[1,0.5]];portConstraint=eastwest;html=1;" parent="1" vertex="1">
          <mxGeometry x="150" y="80" width="80" height="26" as="geometry" />
        </mxCell>
        <mxCell id="HWTtgQEffBTlYTcA-UOP-10" value="Modelo" style="text;align=center;fontStyle=1;verticalAlign=middle;spacingLeft=3;spacingRight=3;strokeColor=none;rotatable=0;points=[[0,0.5],[1,0.5]];portConstraint=eastwest;html=1;" parent="1" vertex="1">
          <mxGeometry x="400" y="675" width="80" height="26" as="geometry" />
        </mxCell>
        <mxCell id="HWTtgQEffBTlYTcA-UOP-11" value="Controlador" style="text;align=center;fontStyle=1;verticalAlign=middle;spacingLeft=3;spacingRight=3;strokeColor=none;rotatable=0;points=[[0,0.5],[1,0.5]];portConstraint=eastwest;html=1;" parent="1" vertex="1">
          <mxGeometry x="400" y="123" width="80" height="26" as="geometry" />
        </mxCell>
        <mxCell id="Udb0MyampByQuGeNIAsv-1" value="" style="shape=folder;fontStyle=1;spacingTop=10;tabWidth=40;tabHeight=14;tabPosition=left;html=1;whiteSpace=wrap;" vertex="1" parent="1">
          <mxGeometry x="70" y="525" width="470" height="410" as="geometry" />
        </mxCell>
        <mxCell id="Udb0MyampByQuGeNIAsv-2" value="«Roles»&lt;br&gt;&lt;b&gt;Component&lt;/b&gt;" style="html=1;dropTarget=0;whiteSpace=wrap;" vertex="1" parent="1">
          <mxGeometry x="100" y="585" width="180" height="90" as="geometry" />
        </mxCell>
        <mxCell id="Udb0MyampByQuGeNIAsv-3" value="" style="shape=module;jettyWidth=8;jettyHeight=4;" vertex="1" parent="Udb0MyampByQuGeNIAsv-2">
          <mxGeometry x="1" width="20" height="20" relative="1" as="geometry">
            <mxPoint x="-27" y="7" as="offset" />
          </mxGeometry>
        </mxCell>
        <mxCell id="Udb0MyampByQuGeNIAsv-4" value="" style="shape=folder;fontStyle=1;spacingTop=10;tabWidth=40;tabHeight=14;tabPosition=left;html=1;whiteSpace=wrap;" vertex="1" parent="1">
          <mxGeometry x="630" y="530" width="510" height="360" as="geometry" />
        </mxCell>
        <mxCell id="Udb0MyampByQuGeNIAsv-5" value="«ControladorUsuario»&lt;br&gt;&lt;b&gt;Component&lt;/b&gt;" style="html=1;dropTarget=0;whiteSpace=wrap;" vertex="1" parent="1">
          <mxGeometry x="660" y="611" width="180" height="90" as="geometry" />
        </mxCell>
        <mxCell id="Udb0MyampByQuGeNIAsv-6" value="" style="shape=module;jettyWidth=8;jettyHeight=4;" vertex="1" parent="Udb0MyampByQuGeNIAsv-5">
          <mxGeometry x="1" width="20" height="20" relative="1" as="geometry">
            <mxPoint x="-27" y="7" as="offset" />
          </mxGeometry>
        </mxCell>
        <mxCell id="Udb0MyampByQuGeNIAsv-7" value="" style="shape=folder;fontStyle=1;spacingTop=10;tabWidth=40;tabHeight=14;tabPosition=left;html=1;whiteSpace=wrap;" vertex="1" parent="1">
          <mxGeometry x="690" y="1040" width="580" height="670" as="geometry" />
        </mxCell>
        <mxCell id="Udb0MyampByQuGeNIAsv-10" value="Modelo" style="text;align=center;fontStyle=1;verticalAlign=middle;spacingLeft=3;spacingRight=3;strokeColor=none;rotatable=0;points=[[0,0.5],[1,0.5]];portConstraint=eastwest;html=1;" vertex="1" parent="1">
          <mxGeometry x="230" y="549" width="80" height="26" as="geometry" />
        </mxCell>
        <mxCell id="Udb0MyampByQuGeNIAsv-11" value="Controlador" style="text;align=center;fontStyle=1;verticalAlign=middle;spacingLeft=3;spacingRight=3;strokeColor=none;rotatable=0;points=[[0,0.5],[1,0.5]];portConstraint=eastwest;html=1;" vertex="1" parent="1">
          <mxGeometry x="850" y="572" width="80" height="26" as="geometry" />
        </mxCell>
        <mxCell id="Udb0MyampByQuGeNIAsv-14" value="Vista" style="text;align=center;fontStyle=1;verticalAlign=middle;spacingLeft=3;spacingRight=3;strokeColor=none;rotatable=0;points=[[0,0.5],[1,0.5]];portConstraint=eastwest;html=1;" vertex="1" parent="1">
          <mxGeometry x="950" y="1100" width="80" height="26" as="geometry" />
        </mxCell>
        <mxCell id="Udb0MyampByQuGeNIAsv-15" value="«Usuarios»&lt;br&gt;&lt;b&gt;Component&lt;/b&gt;" style="html=1;dropTarget=0;whiteSpace=wrap;" vertex="1" parent="1">
          <mxGeometry x="310" y="583" width="180" height="90" as="geometry" />
        </mxCell>
        <mxCell id="Udb0MyampByQuGeNIAsv-16" value="" style="shape=module;jettyWidth=8;jettyHeight=4;" vertex="1" parent="Udb0MyampByQuGeNIAsv-15">
          <mxGeometry x="1" width="20" height="20" relative="1" as="geometry">
            <mxPoint x="-27" y="7" as="offset" />
          </mxGeometry>
        </mxCell>
        <mxCell id="Udb0MyampByQuGeNIAsv-17" value="«Libros»&lt;br&gt;&lt;b&gt;Component&lt;/b&gt;" style="html=1;dropTarget=0;whiteSpace=wrap;" vertex="1" parent="1">
          <mxGeometry x="100" y="705" width="180" height="90" as="geometry" />
        </mxCell>
        <mxCell id="Udb0MyampByQuGeNIAsv-18" value="" style="shape=module;jettyWidth=8;jettyHeight=4;" vertex="1" parent="Udb0MyampByQuGeNIAsv-17">
          <mxGeometry x="1" width="20" height="20" relative="1" as="geometry">
            <mxPoint x="-27" y="7" as="offset" />
          </mxGeometry>
        </mxCell>
        <mxCell id="Udb0MyampByQuGeNIAsv-21" value="«Prestamos»&lt;br&gt;&lt;b&gt;Component&lt;/b&gt;" style="html=1;dropTarget=0;whiteSpace=wrap;" vertex="1" parent="1">
          <mxGeometry x="320" y="705" width="180" height="90" as="geometry" />
        </mxCell>
        <mxCell id="Udb0MyampByQuGeNIAsv-22" value="" style="shape=module;jettyWidth=8;jettyHeight=4;" vertex="1" parent="Udb0MyampByQuGeNIAsv-21">
          <mxGeometry x="1" width="20" height="20" relative="1" as="geometry">
            <mxPoint x="-27" y="7" as="offset" />
          </mxGeometry>
        </mxCell>
        <mxCell id="Udb0MyampByQuGeNIAsv-23" value="«Estado»&lt;br&gt;&lt;b&gt;Component&lt;/b&gt;" style="html=1;dropTarget=0;whiteSpace=wrap;" vertex="1" parent="1">
          <mxGeometry x="220" y="825" width="180" height="90" as="geometry" />
        </mxCell>
        <mxCell id="Udb0MyampByQuGeNIAsv-24" value="" style="shape=module;jettyWidth=8;jettyHeight=4;" vertex="1" parent="Udb0MyampByQuGeNIAsv-23">
          <mxGeometry x="1" width="20" height="20" relative="1" as="geometry">
            <mxPoint x="-27" y="7" as="offset" />
          </mxGeometry>
        </mxCell>
        <mxCell id="Udb0MyampByQuGeNIAsv-25" value="«ControladorLibro»&lt;br&gt;&lt;b&gt;Component&lt;/b&gt;" style="html=1;dropTarget=0;whiteSpace=wrap;" vertex="1" parent="1">
          <mxGeometry x="910" y="611" width="180" height="90" as="geometry" />
        </mxCell>
        <mxCell id="Udb0MyampByQuGeNIAsv-26" value="" style="shape=module;jettyWidth=8;jettyHeight=4;" vertex="1" parent="Udb0MyampByQuGeNIAsv-25">
          <mxGeometry x="1" width="20" height="20" relative="1" as="geometry">
            <mxPoint x="-27" y="7" as="offset" />
          </mxGeometry>
        </mxCell>
        <mxCell id="Udb0MyampByQuGeNIAsv-27" value="«ControladorUsuario»&lt;br&gt;&lt;b&gt;Component&lt;/b&gt;" style="html=1;dropTarget=0;whiteSpace=wrap;" vertex="1" parent="1">
          <mxGeometry x="790" y="740" width="180" height="90" as="geometry" />
        </mxCell>
        <mxCell id="Udb0MyampByQuGeNIAsv-28" value="" style="shape=module;jettyWidth=8;jettyHeight=4;" vertex="1" parent="Udb0MyampByQuGeNIAsv-27">
          <mxGeometry x="1" width="20" height="20" relative="1" as="geometry">
            <mxPoint x="-27" y="7" as="offset" />
          </mxGeometry>
        </mxCell>
        <mxCell id="Udb0MyampByQuGeNIAsv-29" value="" style="shape=folder;fontStyle=1;spacingTop=10;tabWidth=40;tabHeight=14;tabPosition=left;html=1;whiteSpace=wrap;" vertex="1" parent="1">
          <mxGeometry x="180" y="1100" width="420" height="360" as="geometry" />
        </mxCell>
        <mxCell id="Udb0MyampByQuGeNIAsv-30" value="«MySQL»&lt;br&gt;&lt;b&gt;Component&lt;/b&gt;" style="html=1;dropTarget=0;whiteSpace=wrap;" vertex="1" parent="1">
          <mxGeometry x="260" y="1200" width="180" height="90" as="geometry" />
        </mxCell>
        <mxCell id="Udb0MyampByQuGeNIAsv-31" value="" style="shape=module;jettyWidth=8;jettyHeight=4;" vertex="1" parent="Udb0MyampByQuGeNIAsv-30">
          <mxGeometry x="1" width="20" height="20" relative="1" as="geometry">
            <mxPoint x="-27" y="7" as="offset" />
          </mxGeometry>
        </mxCell>
        <mxCell id="Udb0MyampByQuGeNIAsv-32" value="Database" style="text;align=center;fontStyle=1;verticalAlign=middle;spacingLeft=3;spacingRight=3;strokeColor=none;rotatable=0;points=[[0,0.5],[1,0.5]];portConstraint=eastwest;html=1;" vertex="1" parent="1">
          <mxGeometry x="320" y="1143" width="80" height="26" as="geometry" />
        </mxCell>
        <mxCell id="Udb0MyampByQuGeNIAsv-33" value="" style="shape=folder;fontStyle=1;spacingTop=10;tabWidth=40;tabHeight=14;tabPosition=left;html=1;whiteSpace=wrap;" vertex="1" parent="1">
          <mxGeometry x="720" y="1150" width="220" height="290" as="geometry" />
        </mxCell>
        <mxCell id="Udb0MyampByQuGeNIAsv-34" value="" style="shape=folder;fontStyle=1;spacingTop=10;tabWidth=40;tabHeight=14;tabPosition=left;html=1;whiteSpace=wrap;" vertex="1" parent="1">
          <mxGeometry x="980" y="1150" width="220" height="150" as="geometry" />
        </mxCell>
        <mxCell id="Udb0MyampByQuGeNIAsv-35" value="" style="shape=folder;fontStyle=1;spacingTop=10;tabWidth=40;tabHeight=14;tabPosition=left;html=1;whiteSpace=wrap;" vertex="1" parent="1">
          <mxGeometry x="850" y="1480" width="220" height="150" as="geometry" />
        </mxCell>
        <mxCell id="Udb0MyampByQuGeNIAsv-36" value="Vista Usuario" style="text;align=center;fontStyle=1;verticalAlign=middle;spacingLeft=3;spacingRight=3;strokeColor=none;rotatable=0;points=[[0,0.5],[1,0.5]];portConstraint=eastwest;html=1;" vertex="1" parent="1">
          <mxGeometry x="780" y="1140" width="80" height="26" as="geometry" />
        </mxCell>
        <mxCell id="Udb0MyampByQuGeNIAsv-37" value="Vista Libro" style="text;align=center;fontStyle=1;verticalAlign=middle;spacingLeft=3;spacingRight=3;strokeColor=none;rotatable=0;points=[[0,0.5],[1,0.5]];portConstraint=eastwest;html=1;" vertex="1" parent="1">
          <mxGeometry x="1040" y="1140" width="80" height="26" as="geometry" />
        </mxCell>
        <mxCell id="Udb0MyampByQuGeNIAsv-38" value="Vista Prestamo" style="text;align=center;fontStyle=1;verticalAlign=middle;spacingLeft=3;spacingRight=3;strokeColor=none;rotatable=0;points=[[0,0.5],[1,0.5]];portConstraint=eastwest;html=1;" vertex="1" parent="1">
          <mxGeometry x="920" y="1454" width="80" height="26" as="geometry" />
        </mxCell>
        <mxCell id="Udb0MyampByQuGeNIAsv-39" value="«login.php»&lt;br&gt;&lt;b&gt;Component&lt;/b&gt;" style="html=1;dropTarget=0;whiteSpace=wrap;" vertex="1" parent="1">
          <mxGeometry x="740" y="1180" width="180" height="90" as="geometry" />
        </mxCell>
        <mxCell id="Udb0MyampByQuGeNIAsv-40" value="" style="shape=module;jettyWidth=8;jettyHeight=4;" vertex="1" parent="Udb0MyampByQuGeNIAsv-39">
          <mxGeometry x="1" width="20" height="20" relative="1" as="geometry">
            <mxPoint x="-27" y="7" as="offset" />
          </mxGeometry>
        </mxCell>
        <mxCell id="Udb0MyampByQuGeNIAsv-41" value="«register.php»&lt;br&gt;&lt;b&gt;Component&lt;/b&gt;" style="html=1;dropTarget=0;whiteSpace=wrap;" vertex="1" parent="1">
          <mxGeometry x="740" y="1290" width="180" height="90" as="geometry" />
        </mxCell>
        <mxCell id="Udb0MyampByQuGeNIAsv-42" value="" style="shape=module;jettyWidth=8;jettyHeight=4;" vertex="1" parent="Udb0MyampByQuGeNIAsv-41">
          <mxGeometry x="1" width="20" height="20" relative="1" as="geometry">
            <mxPoint x="-27" y="7" as="offset" />
          </mxGeometry>
        </mxCell>
      </root>
    </mxGraphModel>
  </diagram>
</mxfile>
